<mxfile host="drawio-plugin" modified="2023-05-04T18:09:06.585Z" agent="5.0 (Macintosh; Intel Mac OS X 10_15_7) AppleWebKit/537.36 (KHTML, like Gecko) Chrome/104.0.5112.102 Safari/537.36" etag="AGRPWydD9AS8xt0HHYoR" version="20.5.3" type="embed"><diagram name="Страница 1" id="7OJUd1v2IuXWa7cRVHP_"><mxGraphModel dx="593" dy="116" grid="0" gridSize="10" guides="1" tooltips="1" connect="1" arrows="1" fold="1" page="0" pageScale="1" pageWidth="827" pageHeight="1169" math="0" shadow="0"><root><mxCell id="0"/><mxCell id="1" parent="0"/><mxCell id="Kro14iyP_rIzkisNI-u3-111" value="Users" style="swimlane;fontStyle=0;childLayout=stackLayout;horizontal=1;startSize=26;horizontalStack=0;resizeParent=1;resizeParentMax=0;resizeLast=0;collapsible=1;marginBottom=0;align=center;fontSize=14;" parent="1" vertex="1"><mxGeometry x="-70" y="435" width="160" height="296" as="geometry"/></mxCell><mxCell id="Kro14iyP_rIzkisNI-u3-112" value="id" style="text;strokeColor=none;fillColor=none;spacingLeft=4;spacingRight=4;overflow=hidden;rotatable=0;points=[[0,0.5],[1,0.5]];portConstraint=eastwest;fontSize=12;whiteSpace=wrap;html=1;" parent="Kro14iyP_rIzkisNI-u3-111" vertex="1"><mxGeometry y="26" width="160" height="30" as="geometry"/></mxCell><mxCell id="Kro14iyP_rIzkisNI-u3-113" value="firstName&lt;br&gt;" style="text;strokeColor=none;fillColor=none;spacingLeft=4;spacingRight=4;overflow=hidden;rotatable=0;points=[[0,0.5],[1,0.5]];portConstraint=eastwest;fontSize=12;whiteSpace=wrap;html=1;" parent="Kro14iyP_rIzkisNI-u3-111" vertex="1"><mxGeometry y="56" width="160" height="30" as="geometry"/></mxCell><mxCell id="Kro14iyP_rIzkisNI-u3-116" value="lastName" style="text;strokeColor=none;fillColor=none;spacingLeft=4;spacingRight=4;overflow=hidden;rotatable=0;points=[[0,0.5],[1,0.5]];portConstraint=eastwest;fontSize=12;whiteSpace=wrap;html=1;" parent="Kro14iyP_rIzkisNI-u3-111" vertex="1"><mxGeometry y="86" width="160" height="30" as="geometry"/></mxCell><mxCell id="Kro14iyP_rIzkisNI-u3-117" value="middleName" style="text;strokeColor=none;fillColor=none;spacingLeft=4;spacingRight=4;overflow=hidden;rotatable=0;points=[[0,0.5],[1,0.5]];portConstraint=eastwest;fontSize=12;whiteSpace=wrap;html=1;" parent="Kro14iyP_rIzkisNI-u3-111" vertex="1"><mxGeometry y="116" width="160" height="30" as="geometry"/></mxCell><mxCell id="Kro14iyP_rIzkisNI-u3-119" value="password" style="text;strokeColor=none;fillColor=none;spacingLeft=4;spacingRight=4;overflow=hidden;rotatable=0;points=[[0,0.5],[1,0.5]];portConstraint=eastwest;fontSize=12;whiteSpace=wrap;html=1;" parent="Kro14iyP_rIzkisNI-u3-111" vertex="1"><mxGeometry y="146" width="160" height="30" as="geometry"/></mxCell><mxCell id="Kro14iyP_rIzkisNI-u3-118" value="email&lt;br&gt;" style="text;strokeColor=none;fillColor=none;spacingLeft=4;spacingRight=4;overflow=hidden;rotatable=0;points=[[0,0.5],[1,0.5]];portConstraint=eastwest;fontSize=12;whiteSpace=wrap;html=1;" parent="Kro14iyP_rIzkisNI-u3-111" vertex="1"><mxGeometry y="176" width="160" height="30" as="geometry"/></mxCell><mxCell id="Kro14iyP_rIzkisNI-u3-234" value="isActivated" style="text;strokeColor=none;fillColor=none;spacingLeft=4;spacingRight=4;overflow=hidden;rotatable=0;points=[[0,0.5],[1,0.5]];portConstraint=eastwest;fontSize=12;whiteSpace=wrap;html=1;" parent="Kro14iyP_rIzkisNI-u3-111" vertex="1"><mxGeometry y="206" width="160" height="30" as="geometry"/></mxCell><mxCell id="68" value="activationLink" style="text;strokeColor=none;fillColor=none;spacingLeft=4;spacingRight=4;overflow=hidden;rotatable=0;points=[[0,0.5],[1,0.5]];portConstraint=eastwest;fontSize=12;whiteSpace=wrap;html=1;" vertex="1" parent="Kro14iyP_rIzkisNI-u3-111"><mxGeometry y="236" width="160" height="30" as="geometry"/></mxCell><mxCell id="Kro14iyP_rIzkisNI-u3-237" value="role" style="text;strokeColor=none;fillColor=none;spacingLeft=4;spacingRight=4;overflow=hidden;rotatable=0;points=[[0,0.5],[1,0.5]];portConstraint=eastwest;fontSize=12;whiteSpace=wrap;html=1;" parent="Kro14iyP_rIzkisNI-u3-111" vertex="1"><mxGeometry y="266" width="160" height="30" as="geometry"/></mxCell><mxCell id="Kro14iyP_rIzkisNI-u3-123" value="Baskets" style="swimlane;fontStyle=0;childLayout=stackLayout;horizontal=1;startSize=26;horizontalStack=0;resizeParent=1;resizeParentMax=0;resizeLast=0;collapsible=1;marginBottom=0;align=center;fontSize=14;" parent="1" vertex="1"><mxGeometry x="220" y="303" width="160" height="86" as="geometry"/></mxCell><mxCell id="Kro14iyP_rIzkisNI-u3-124" value="id" style="text;strokeColor=none;fillColor=none;spacingLeft=4;spacingRight=4;overflow=hidden;rotatable=0;points=[[0,0.5],[1,0.5]];portConstraint=eastwest;fontSize=12;whiteSpace=wrap;html=1;" parent="Kro14iyP_rIzkisNI-u3-123" vertex="1"><mxGeometry y="26" width="160" height="30" as="geometry"/></mxCell><mxCell id="Kro14iyP_rIzkisNI-u3-125" value="user_id" style="text;strokeColor=none;fillColor=none;spacingLeft=4;spacingRight=4;overflow=hidden;rotatable=0;points=[[0,0.5],[1,0.5]];portConstraint=eastwest;fontSize=12;whiteSpace=wrap;html=1;" parent="Kro14iyP_rIzkisNI-u3-123" vertex="1"><mxGeometry y="56" width="160" height="30" as="geometry"/></mxCell><mxCell id="Kro14iyP_rIzkisNI-u3-127" value="" style="edgeStyle=entityRelationEdgeStyle;fontSize=12;html=1;endArrow=ERmandOne;startArrow=ERmandOne;rounded=0;entryX=0;entryY=0.5;entryDx=0;entryDy=0;exitX=1;exitY=0.054;exitDx=0;exitDy=0;exitPerimeter=0;" parent="1" source="Kro14iyP_rIzkisNI-u3-111" target="Kro14iyP_rIzkisNI-u3-125" edge="1"><mxGeometry width="100" height="100" relative="1" as="geometry"><mxPoint x="91" y="450" as="sourcePoint"/><mxPoint x="91" y="500" as="targetPoint"/></mxGeometry></mxCell><mxCell id="Kro14iyP_rIzkisNI-u3-128" value="Products" style="swimlane;fontStyle=0;childLayout=stackLayout;horizontal=1;startSize=26;horizontalStack=0;resizeParent=1;resizeParentMax=0;resizeLast=0;collapsible=1;marginBottom=0;align=center;fontSize=14;" parent="1" vertex="1"><mxGeometry x="963" y="363" width="160" height="236" as="geometry"/></mxCell><mxCell id="Kro14iyP_rIzkisNI-u3-129" value="id" style="text;strokeColor=none;fillColor=none;spacingLeft=4;spacingRight=4;overflow=hidden;rotatable=0;points=[[0,0.5],[1,0.5]];portConstraint=eastwest;fontSize=12;whiteSpace=wrap;html=1;" parent="Kro14iyP_rIzkisNI-u3-128" vertex="1"><mxGeometry y="26" width="160" height="30" as="geometry"/></mxCell><mxCell id="Kro14iyP_rIzkisNI-u3-130" value="name" style="text;strokeColor=none;fillColor=none;spacingLeft=4;spacingRight=4;overflow=hidden;rotatable=0;points=[[0,0.5],[1,0.5]];portConstraint=eastwest;fontSize=12;whiteSpace=wrap;html=1;" parent="Kro14iyP_rIzkisNI-u3-128" vertex="1"><mxGeometry y="56" width="160" height="30" as="geometry"/></mxCell><mxCell id="Kro14iyP_rIzkisNI-u3-153" value="description" style="text;strokeColor=none;fillColor=none;spacingLeft=4;spacingRight=4;overflow=hidden;rotatable=0;points=[[0,0.5],[1,0.5]];portConstraint=eastwest;fontSize=12;whiteSpace=wrap;html=1;" parent="Kro14iyP_rIzkisNI-u3-128" vertex="1"><mxGeometry y="86" width="160" height="30" as="geometry"/></mxCell><mxCell id="Kro14iyP_rIzkisNI-u3-131" value="price" style="text;strokeColor=none;fillColor=none;spacingLeft=4;spacingRight=4;overflow=hidden;rotatable=0;points=[[0,0.5],[1,0.5]];portConstraint=eastwest;fontSize=12;whiteSpace=wrap;html=1;" parent="Kro14iyP_rIzkisNI-u3-128" vertex="1"><mxGeometry y="116" width="160" height="30" as="geometry"/></mxCell><mxCell id="Kro14iyP_rIzkisNI-u3-132" value="discount" style="text;strokeColor=none;fillColor=none;spacingLeft=4;spacingRight=4;overflow=hidden;rotatable=0;points=[[0,0.5],[1,0.5]];portConstraint=eastwest;fontSize=12;whiteSpace=wrap;html=1;" parent="Kro14iyP_rIzkisNI-u3-128" vertex="1"><mxGeometry y="146" width="160" height="30" as="geometry"/></mxCell><mxCell id="Kro14iyP_rIzkisNI-u3-133" value="quantity" style="text;strokeColor=none;fillColor=none;spacingLeft=4;spacingRight=4;overflow=hidden;rotatable=0;points=[[0,0.5],[1,0.5]];portConstraint=eastwest;fontSize=12;whiteSpace=wrap;html=1;" parent="Kro14iyP_rIzkisNI-u3-128" vertex="1"><mxGeometry y="176" width="160" height="30" as="geometry"/></mxCell><mxCell id="Kro14iyP_rIzkisNI-u3-137" value="category_id" style="text;strokeColor=none;fillColor=none;spacingLeft=4;spacingRight=4;overflow=hidden;rotatable=0;points=[[0,0.5],[1,0.5]];portConstraint=eastwest;fontSize=12;whiteSpace=wrap;html=1;" parent="Kro14iyP_rIzkisNI-u3-128" vertex="1"><mxGeometry y="206" width="160" height="30" as="geometry"/></mxCell><mxCell id="Kro14iyP_rIzkisNI-u3-145" value="" style="edgeStyle=entityRelationEdgeStyle;fontSize=12;html=1;endArrow=ERoneToMany;rounded=0;exitX=0.5;exitY=0;exitDx=0;exitDy=0;entryX=1;entryY=0.5;entryDx=0;entryDy=0;" parent="1" source="Kro14iyP_rIzkisNI-u3-160" target="Kro14iyP_rIzkisNI-u3-137" edge="1"><mxGeometry width="100" height="100" relative="1" as="geometry"><mxPoint x="1041" y="590" as="sourcePoint"/><mxPoint x="391" y="590" as="targetPoint"/></mxGeometry></mxCell><mxCell id="Kro14iyP_rIzkisNI-u3-147" value="Product metas" style="swimlane;fontStyle=0;childLayout=stackLayout;horizontal=1;startSize=26;horizontalStack=0;resizeParent=1;resizeParentMax=0;resizeLast=0;collapsible=1;marginBottom=0;align=center;fontSize=14;" parent="1" vertex="1"><mxGeometry x="1209" y="43" width="160" height="146" as="geometry"><mxRectangle x="1290" y="-70" width="130" height="30" as="alternateBounds"/></mxGeometry></mxCell><mxCell id="Kro14iyP_rIzkisNI-u3-148" value="id" style="text;strokeColor=none;fillColor=none;spacingLeft=4;spacingRight=4;overflow=hidden;rotatable=0;points=[[0,0.5],[1,0.5]];portConstraint=eastwest;fontSize=12;whiteSpace=wrap;html=1;" parent="Kro14iyP_rIzkisNI-u3-147" vertex="1"><mxGeometry y="26" width="160" height="30" as="geometry"/></mxCell><mxCell id="Kro14iyP_rIzkisNI-u3-150" value="title" style="text;strokeColor=none;fillColor=none;spacingLeft=4;spacingRight=4;overflow=hidden;rotatable=0;points=[[0,0.5],[1,0.5]];portConstraint=eastwest;fontSize=12;whiteSpace=wrap;html=1;" parent="Kro14iyP_rIzkisNI-u3-147" vertex="1"><mxGeometry y="56" width="160" height="30" as="geometry"/></mxCell><mxCell id="Kro14iyP_rIzkisNI-u3-151" value="description" style="text;strokeColor=none;fillColor=none;spacingLeft=4;spacingRight=4;overflow=hidden;rotatable=0;points=[[0,0.5],[1,0.5]];portConstraint=eastwest;fontSize=12;whiteSpace=wrap;html=1;" parent="Kro14iyP_rIzkisNI-u3-147" vertex="1"><mxGeometry y="86" width="160" height="30" as="geometry"/></mxCell><mxCell id="Kro14iyP_rIzkisNI-u3-149" value="product_id" style="text;strokeColor=none;fillColor=none;spacingLeft=4;spacingRight=4;overflow=hidden;rotatable=0;points=[[0,0.5],[1,0.5]];portConstraint=eastwest;fontSize=12;whiteSpace=wrap;html=1;" parent="Kro14iyP_rIzkisNI-u3-147" vertex="1"><mxGeometry y="116" width="160" height="30" as="geometry"/></mxCell><mxCell id="Kro14iyP_rIzkisNI-u3-154" value="Basket_product" style="swimlane;fontStyle=0;childLayout=stackLayout;horizontal=1;startSize=26;horizontalStack=0;resizeParent=1;resizeParentMax=0;resizeLast=0;collapsible=1;marginBottom=0;align=center;fontSize=14;" parent="1" vertex="1"><mxGeometry x="661" y="203" width="160" height="146" as="geometry"/></mxCell><mxCell id="Kro14iyP_rIzkisNI-u3-155" value="id" style="text;strokeColor=none;fillColor=none;spacingLeft=4;spacingRight=4;overflow=hidden;rotatable=0;points=[[0,0.5],[1,0.5]];portConstraint=eastwest;fontSize=12;whiteSpace=wrap;html=1;" parent="Kro14iyP_rIzkisNI-u3-154" vertex="1"><mxGeometry y="26" width="160" height="30" as="geometry"/></mxCell><mxCell id="Kro14iyP_rIzkisNI-u3-156" value="product_id" style="text;strokeColor=none;fillColor=none;spacingLeft=4;spacingRight=4;overflow=hidden;rotatable=0;points=[[0,0.5],[1,0.5]];portConstraint=eastwest;fontSize=12;whiteSpace=wrap;html=1;" parent="Kro14iyP_rIzkisNI-u3-154" vertex="1"><mxGeometry y="56" width="160" height="30" as="geometry"/></mxCell><mxCell id="Kro14iyP_rIzkisNI-u3-157" value="basket_id" style="text;strokeColor=none;fillColor=none;spacingLeft=4;spacingRight=4;overflow=hidden;rotatable=0;points=[[0,0.5],[1,0.5]];portConstraint=eastwest;fontSize=12;whiteSpace=wrap;html=1;" parent="Kro14iyP_rIzkisNI-u3-154" vertex="1"><mxGeometry y="86" width="160" height="30" as="geometry"/></mxCell><mxCell id="Kro14iyP_rIzkisNI-u3-252" value="quantity" style="text;strokeColor=none;fillColor=none;spacingLeft=4;spacingRight=4;overflow=hidden;rotatable=0;points=[[0,0.5],[1,0.5]];portConstraint=eastwest;fontSize=12;whiteSpace=wrap;html=1;" parent="Kro14iyP_rIzkisNI-u3-154" vertex="1"><mxGeometry y="116" width="160" height="30" as="geometry"/></mxCell><mxCell id="Kro14iyP_rIzkisNI-u3-158" value="" style="edgeStyle=entityRelationEdgeStyle;fontSize=12;html=1;endArrow=ERoneToMany;rounded=0;entryX=0;entryY=0.5;entryDx=0;entryDy=0;exitX=1;exitY=0.162;exitDx=0;exitDy=0;exitPerimeter=0;" parent="1" source="Kro14iyP_rIzkisNI-u3-123" target="Kro14iyP_rIzkisNI-u3-157" edge="1"><mxGeometry width="100" height="100" relative="1" as="geometry"><mxPoint x="221" y="260" as="sourcePoint"/><mxPoint x="391" y="490" as="targetPoint"/></mxGeometry></mxCell><mxCell id="Kro14iyP_rIzkisNI-u3-160" value="Categories" style="swimlane;fontStyle=0;childLayout=stackLayout;horizontal=1;startSize=26;horizontalStack=0;resizeParent=1;resizeParentMax=0;resizeLast=0;collapsible=1;marginBottom=0;align=center;fontSize=14;" parent="1" vertex="1"><mxGeometry x="1209" y="617" width="160" height="116" as="geometry"><mxRectangle x="961" y="620" width="103" height="29" as="alternateBounds"/></mxGeometry></mxCell><mxCell id="Kro14iyP_rIzkisNI-u3-161" value="id" style="text;strokeColor=none;fillColor=none;spacingLeft=4;spacingRight=4;overflow=hidden;rotatable=0;points=[[0,0.5],[1,0.5]];portConstraint=eastwest;fontSize=12;whiteSpace=wrap;html=1;" parent="Kro14iyP_rIzkisNI-u3-160" vertex="1"><mxGeometry y="26" width="160" height="30" as="geometry"/></mxCell><mxCell id="Kro14iyP_rIzkisNI-u3-162" value="name" style="text;strokeColor=none;fillColor=none;spacingLeft=4;spacingRight=4;overflow=hidden;rotatable=0;points=[[0,0.5],[1,0.5]];portConstraint=eastwest;fontSize=12;whiteSpace=wrap;html=1;" parent="Kro14iyP_rIzkisNI-u3-160" vertex="1"><mxGeometry y="56" width="160" height="30" as="geometry"/></mxCell><mxCell id="Kro14iyP_rIzkisNI-u3-245" value="parent_category_id" style="text;strokeColor=none;fillColor=none;spacingLeft=4;spacingRight=4;overflow=hidden;rotatable=0;points=[[0,0.5],[1,0.5]];portConstraint=eastwest;fontSize=12;whiteSpace=wrap;html=1;" parent="Kro14iyP_rIzkisNI-u3-160" vertex="1"><mxGeometry y="86" width="160" height="30" as="geometry"/></mxCell><mxCell id="Kro14iyP_rIzkisNI-u3-166" value="" style="edgeStyle=entityRelationEdgeStyle;fontSize=12;html=1;endArrow=ERoneToMany;rounded=0;exitX=1;exitY=0.5;exitDx=0;exitDy=0;entryX=1;entryY=0.5;entryDx=0;entryDy=0;" parent="Kro14iyP_rIzkisNI-u3-160" source="Kro14iyP_rIzkisNI-u3-245" target="Kro14iyP_rIzkisNI-u3-161" edge="1"><mxGeometry width="100" height="100" relative="1" as="geometry"><mxPoint x="-930" y="90" as="sourcePoint"/><mxPoint x="-90" y="61" as="targetPoint"/></mxGeometry></mxCell><mxCell id="Kro14iyP_rIzkisNI-u3-171" value="" style="edgeStyle=entityRelationEdgeStyle;fontSize=12;html=1;endArrow=ERoneToMany;rounded=0;exitX=0.75;exitY=0;exitDx=0;exitDy=0;entryX=0;entryY=0.5;entryDx=0;entryDy=0;" parent="1" source="Kro14iyP_rIzkisNI-u3-128" target="Kro14iyP_rIzkisNI-u3-149" edge="1"><mxGeometry width="100" height="100" relative="1" as="geometry"><mxPoint x="771" y="510" as="sourcePoint"/><mxPoint x="871" y="410" as="targetPoint"/></mxGeometry></mxCell><mxCell id="Kro14iyP_rIzkisNI-u3-172" value="Orders" style="swimlane;fontStyle=0;childLayout=stackLayout;horizontal=1;startSize=26;horizontalStack=0;resizeParent=1;resizeParentMax=0;resizeLast=0;collapsible=1;marginBottom=0;align=center;fontSize=14;" parent="1" vertex="1"><mxGeometry x="220" y="583" width="160" height="266" as="geometry"><mxRectangle x="251" y="560" width="78" height="29" as="alternateBounds"/></mxGeometry></mxCell><mxCell id="Kro14iyP_rIzkisNI-u3-202" value="id" style="text;strokeColor=none;fillColor=none;spacingLeft=4;spacingRight=4;overflow=hidden;rotatable=0;points=[[0,0.5],[1,0.5]];portConstraint=eastwest;fontSize=12;whiteSpace=wrap;html=1;" parent="Kro14iyP_rIzkisNI-u3-172" vertex="1"><mxGeometry y="26" width="160" height="30" as="geometry"/></mxCell><mxCell id="Kro14iyP_rIzkisNI-u3-174" value="is_paid" style="text;strokeColor=none;fillColor=none;spacingLeft=4;spacingRight=4;overflow=hidden;rotatable=0;points=[[0,0.5],[1,0.5]];portConstraint=eastwest;fontSize=12;whiteSpace=wrap;html=1;" parent="Kro14iyP_rIzkisNI-u3-172" vertex="1"><mxGeometry y="56" width="160" height="30" as="geometry"/></mxCell><mxCell id="21" value="status" style="text;strokeColor=none;fillColor=none;spacingLeft=4;spacingRight=4;overflow=hidden;rotatable=0;points=[[0,0.5],[1,0.5]];portConstraint=eastwest;fontSize=12;whiteSpace=wrap;html=1;" parent="Kro14iyP_rIzkisNI-u3-172" vertex="1"><mxGeometry y="86" width="160" height="30" as="geometry"/></mxCell><mxCell id="22" value="note" style="text;strokeColor=none;fillColor=none;spacingLeft=4;spacingRight=4;overflow=hidden;rotatable=0;points=[[0,0.5],[1,0.5]];portConstraint=eastwest;fontSize=12;whiteSpace=wrap;html=1;" parent="Kro14iyP_rIzkisNI-u3-172" vertex="1"><mxGeometry y="116" width="160" height="30" as="geometry"/></mxCell><mxCell id="23" value="ship_date" style="text;strokeColor=none;fillColor=none;spacingLeft=4;spacingRight=4;overflow=hidden;rotatable=0;points=[[0,0.5],[1,0.5]];portConstraint=eastwest;fontSize=12;whiteSpace=wrap;html=1;" parent="Kro14iyP_rIzkisNI-u3-172" vertex="1"><mxGeometry y="146" width="160" height="30" as="geometry"/></mxCell><mxCell id="44" value="total" style="text;strokeColor=none;fillColor=none;spacingLeft=4;spacingRight=4;overflow=hidden;rotatable=0;points=[[0,0.5],[1,0.5]];portConstraint=eastwest;fontSize=12;whiteSpace=wrap;html=1;" parent="Kro14iyP_rIzkisNI-u3-172" vertex="1"><mxGeometry y="176" width="160" height="30" as="geometry"/></mxCell><mxCell id="Kro14iyP_rIzkisNI-u3-173" value="user_id" style="text;strokeColor=none;fillColor=none;spacingLeft=4;spacingRight=4;overflow=hidden;rotatable=0;points=[[0,0.5],[1,0.5]];portConstraint=eastwest;fontSize=12;whiteSpace=wrap;html=1;" parent="Kro14iyP_rIzkisNI-u3-172" vertex="1"><mxGeometry y="206" width="160" height="30" as="geometry"/></mxCell><mxCell id="Kro14iyP_rIzkisNI-u3-175" value="shipment_id" style="text;strokeColor=none;fillColor=none;spacingLeft=4;spacingRight=4;overflow=hidden;rotatable=0;points=[[0,0.5],[1,0.5]];portConstraint=eastwest;fontSize=12;whiteSpace=wrap;html=1;" parent="Kro14iyP_rIzkisNI-u3-172" vertex="1"><mxGeometry y="236" width="160" height="30" as="geometry"/></mxCell><mxCell id="Kro14iyP_rIzkisNI-u3-176" value="Order_product" style="swimlane;fontStyle=0;childLayout=stackLayout;horizontal=1;startSize=26;horizontalStack=0;resizeParent=1;resizeParentMax=0;resizeLast=0;collapsible=1;marginBottom=0;align=center;fontSize=14;" parent="1" vertex="1"><mxGeometry x="661" y="704" width="160" height="176" as="geometry"/></mxCell><mxCell id="Kro14iyP_rIzkisNI-u3-177" value="id" style="text;strokeColor=none;fillColor=none;spacingLeft=4;spacingRight=4;overflow=hidden;rotatable=0;points=[[0,0.5],[1,0.5]];portConstraint=eastwest;fontSize=12;whiteSpace=wrap;html=1;" parent="Kro14iyP_rIzkisNI-u3-176" vertex="1"><mxGeometry y="26" width="160" height="30" as="geometry"/></mxCell><mxCell id="Kro14iyP_rIzkisNI-u3-178" value="product_id" style="text;strokeColor=none;fillColor=none;spacingLeft=4;spacingRight=4;overflow=hidden;rotatable=0;points=[[0,0.5],[1,0.5]];portConstraint=eastwest;fontSize=12;whiteSpace=wrap;html=1;" parent="Kro14iyP_rIzkisNI-u3-176" vertex="1"><mxGeometry y="56" width="160" height="30" as="geometry"/></mxCell><mxCell id="Kro14iyP_rIzkisNI-u3-179" value="order_id" style="text;strokeColor=none;fillColor=none;spacingLeft=4;spacingRight=4;overflow=hidden;rotatable=0;points=[[0,0.5],[1,0.5]];portConstraint=eastwest;fontSize=12;whiteSpace=wrap;html=1;" parent="Kro14iyP_rIzkisNI-u3-176" vertex="1"><mxGeometry y="86" width="160" height="30" as="geometry"/></mxCell><mxCell id="Kro14iyP_rIzkisNI-u3-194" value="quantity" style="text;strokeColor=none;fillColor=none;spacingLeft=4;spacingRight=4;overflow=hidden;rotatable=0;points=[[0,0.5],[1,0.5]];portConstraint=eastwest;fontSize=12;whiteSpace=wrap;html=1;" parent="Kro14iyP_rIzkisNI-u3-176" vertex="1"><mxGeometry y="116" width="160" height="30" as="geometry"/></mxCell><mxCell id="Kro14iyP_rIzkisNI-u3-198" value="sale_price" style="text;strokeColor=none;fillColor=none;spacingLeft=4;spacingRight=4;overflow=hidden;rotatable=0;points=[[0,0.5],[1,0.5]];portConstraint=eastwest;fontSize=12;whiteSpace=wrap;html=1;" parent="Kro14iyP_rIzkisNI-u3-176" vertex="1"><mxGeometry y="146" width="160" height="30" as="geometry"/></mxCell><mxCell id="Kro14iyP_rIzkisNI-u3-182" value="" style="edgeStyle=entityRelationEdgeStyle;fontSize=12;html=1;endArrow=ERoneToMany;rounded=0;entryX=0;entryY=0.5;entryDx=0;entryDy=0;exitX=0.999;exitY=-0.001;exitDx=0;exitDy=0;exitPerimeter=0;" parent="1" source="Kro14iyP_rIzkisNI-u3-112" target="Kro14iyP_rIzkisNI-u3-173" edge="1"><mxGeometry width="100" height="100" relative="1" as="geometry"><mxPoint x="1" y="400" as="sourcePoint"/><mxPoint x="-169" y="720" as="targetPoint"/></mxGeometry></mxCell><mxCell id="Kro14iyP_rIzkisNI-u3-187" value="Shipment_types" style="swimlane;fontStyle=0;childLayout=stackLayout;horizontal=1;startSize=26;horizontalStack=0;resizeParent=1;resizeParentMax=0;resizeLast=0;collapsible=1;marginBottom=0;align=center;fontSize=14;" parent="1" vertex="1"><mxGeometry x="-325" y="797" width="160" height="116" as="geometry"/></mxCell><mxCell id="Kro14iyP_rIzkisNI-u3-188" value="id" style="text;strokeColor=none;fillColor=none;spacingLeft=4;spacingRight=4;overflow=hidden;rotatable=0;points=[[0,0.5],[1,0.5]];portConstraint=eastwest;fontSize=12;whiteSpace=wrap;html=1;" parent="Kro14iyP_rIzkisNI-u3-187" vertex="1"><mxGeometry y="26" width="160" height="30" as="geometry"/></mxCell><mxCell id="Kro14iyP_rIzkisNI-u3-189" value="code" style="text;strokeColor=none;fillColor=none;spacingLeft=4;spacingRight=4;overflow=hidden;rotatable=0;points=[[0,0.5],[1,0.5]];portConstraint=eastwest;fontSize=12;whiteSpace=wrap;html=1;" parent="Kro14iyP_rIzkisNI-u3-187" vertex="1"><mxGeometry y="56" width="160" height="30" as="geometry"/></mxCell><mxCell id="Kro14iyP_rIzkisNI-u3-204" value="price" style="text;strokeColor=none;fillColor=none;spacingLeft=4;spacingRight=4;overflow=hidden;rotatable=0;points=[[0,0.5],[1,0.5]];portConstraint=eastwest;fontSize=12;whiteSpace=wrap;html=1;" parent="Kro14iyP_rIzkisNI-u3-187" vertex="1"><mxGeometry y="86" width="160" height="30" as="geometry"/></mxCell><mxCell id="Kro14iyP_rIzkisNI-u3-191" value="" style="edgeStyle=entityRelationEdgeStyle;fontSize=12;html=1;endArrow=ERoneToMany;rounded=0;entryX=0;entryY=0.5;entryDx=0;entryDy=0;" parent="1" source="Kro14iyP_rIzkisNI-u3-204" target="30" edge="1"><mxGeometry width="100" height="100" relative="1" as="geometry"><mxPoint x="201" y="928" as="sourcePoint"/><mxPoint x="211" y="640" as="targetPoint"/></mxGeometry></mxCell><mxCell id="Kro14iyP_rIzkisNI-u3-203" value="" style="edgeStyle=entityRelationEdgeStyle;fontSize=12;html=1;endArrow=ERoneToMany;rounded=0;entryX=0;entryY=0.5;entryDx=0;entryDy=0;exitX=1;exitY=0.077;exitDx=0;exitDy=0;exitPerimeter=0;" parent="1" source="Kro14iyP_rIzkisNI-u3-172" target="Kro14iyP_rIzkisNI-u3-179" edge="1"><mxGeometry width="100" height="100" relative="1" as="geometry"><mxPoint x="470" y="807" as="sourcePoint"/><mxPoint x="441" y="520" as="targetPoint"/></mxGeometry></mxCell><mxCell id="Kro14iyP_rIzkisNI-u3-205" value="" style="edgeStyle=entityRelationEdgeStyle;fontSize=12;html=1;endArrow=ERoneToMany;rounded=0;exitX=0.003;exitY=0.073;exitDx=0;exitDy=0;entryX=1;entryY=0.5;entryDx=0;entryDy=0;exitPerimeter=0;" parent="1" source="Kro14iyP_rIzkisNI-u3-128" target="Kro14iyP_rIzkisNI-u3-178" edge="1"><mxGeometry width="100" height="100" relative="1" as="geometry"><mxPoint x="201" y="790" as="sourcePoint"/><mxPoint x="491" y="440" as="targetPoint"/></mxGeometry></mxCell><mxCell id="Kro14iyP_rIzkisNI-u3-212" value="Coupon" style="swimlane;fontStyle=0;childLayout=stackLayout;horizontal=1;startSize=26;horizontalStack=0;resizeParent=1;resizeParentMax=0;resizeLast=0;collapsible=1;marginBottom=0;align=center;fontSize=14;" parent="1" vertex="1"><mxGeometry x="681" y="378" width="170" height="206" as="geometry"/></mxCell><mxCell id="Kro14iyP_rIzkisNI-u3-213" value="id" style="text;strokeColor=none;fillColor=none;spacingLeft=4;spacingRight=4;overflow=hidden;rotatable=0;points=[[0,0.5],[1,0.5]];portConstraint=eastwest;fontSize=12;whiteSpace=wrap;html=1;" parent="Kro14iyP_rIzkisNI-u3-212" vertex="1"><mxGeometry y="26" width="170" height="30" as="geometry"/></mxCell><mxCell id="Kro14iyP_rIzkisNI-u3-214" value="key_name" style="text;strokeColor=none;fillColor=none;spacingLeft=4;spacingRight=4;overflow=hidden;rotatable=0;points=[[0,0.5],[1,0.5]];portConstraint=eastwest;fontSize=12;whiteSpace=wrap;html=1;" parent="Kro14iyP_rIzkisNI-u3-212" vertex="1"><mxGeometry y="56" width="170" height="30" as="geometry"/></mxCell><mxCell id="Kro14iyP_rIzkisNI-u3-215" value="value" style="text;strokeColor=none;fillColor=none;spacingLeft=4;spacingRight=4;overflow=hidden;rotatable=0;points=[[0,0.5],[1,0.5]];portConstraint=eastwest;fontSize=12;whiteSpace=wrap;html=1;" parent="Kro14iyP_rIzkisNI-u3-212" vertex="1"><mxGeometry y="86" width="170" height="30" as="geometry"/></mxCell><mxCell id="Kro14iyP_rIzkisNI-u3-253" value="&lt;div style=&quot;background-color: rgb(255, 255, 255); font-family: &amp;quot;JetBrains Mono&amp;quot;, monospace;&quot;&gt;&lt;span style=&quot;color: rgb(8, 8, 8);&quot;&gt;type&amp;nbsp;&lt;/span&gt;&lt;font color=&quot;#067d17&quot;&gt;AMOUNT|PERCENTAGE&lt;/font&gt;&lt;/div&gt;" style="text;strokeColor=none;fillColor=none;spacingLeft=4;spacingRight=4;overflow=hidden;rotatable=0;points=[[0,0.5],[1,0.5]];portConstraint=eastwest;fontSize=12;whiteSpace=wrap;html=1;" parent="Kro14iyP_rIzkisNI-u3-212" vertex="1"><mxGeometry y="116" width="170" height="30" as="geometry"/></mxCell><mxCell id="Kro14iyP_rIzkisNI-u3-254" value="expires_time" style="text;strokeColor=none;fillColor=none;spacingLeft=4;spacingRight=4;overflow=hidden;rotatable=0;points=[[0,0.5],[1,0.5]];portConstraint=eastwest;fontSize=12;whiteSpace=wrap;html=1;" parent="Kro14iyP_rIzkisNI-u3-212" vertex="1"><mxGeometry y="146" width="170" height="30" as="geometry"/></mxCell><mxCell id="Kro14iyP_rIzkisNI-u3-261" value="expires_count" style="text;strokeColor=none;fillColor=none;spacingLeft=4;spacingRight=4;overflow=hidden;rotatable=0;points=[[0,0.5],[1,0.5]];portConstraint=eastwest;fontSize=12;whiteSpace=wrap;html=1;" parent="Kro14iyP_rIzkisNI-u3-212" vertex="1"><mxGeometry y="176" width="170" height="30" as="geometry"/></mxCell><mxCell id="Kro14iyP_rIzkisNI-u3-216" value="order_coupon" style="swimlane;fontStyle=0;childLayout=stackLayout;horizontal=1;startSize=26;horizontalStack=0;resizeParent=1;resizeParentMax=0;resizeLast=0;collapsible=1;marginBottom=0;align=center;fontSize=14;" parent="1" vertex="1"><mxGeometry x="444" y="493" width="160" height="120" as="geometry"/></mxCell><mxCell id="Kro14iyP_rIzkisNI-u3-217" value="id" style="text;strokeColor=none;fillColor=none;spacingLeft=4;spacingRight=4;overflow=hidden;rotatable=0;points=[[0,0.5],[1,0.5]];portConstraint=eastwest;fontSize=12;whiteSpace=wrap;html=1;" parent="Kro14iyP_rIzkisNI-u3-216" vertex="1"><mxGeometry y="26" width="160" height="34" as="geometry"/></mxCell><mxCell id="Kro14iyP_rIzkisNI-u3-219" value="coupon_id" style="text;strokeColor=none;fillColor=none;spacingLeft=4;spacingRight=4;overflow=hidden;rotatable=0;points=[[0,0.5],[1,0.5]];portConstraint=eastwest;fontSize=12;whiteSpace=wrap;html=1;" parent="Kro14iyP_rIzkisNI-u3-216" vertex="1"><mxGeometry y="60" width="160" height="30" as="geometry"/></mxCell><mxCell id="Kro14iyP_rIzkisNI-u3-218" value="order_id" style="text;strokeColor=none;fillColor=none;spacingLeft=4;spacingRight=4;overflow=hidden;rotatable=0;points=[[0,0.5],[1,0.5]];portConstraint=eastwest;fontSize=12;whiteSpace=wrap;html=1;" parent="Kro14iyP_rIzkisNI-u3-216" vertex="1"><mxGeometry y="90" width="160" height="30" as="geometry"/></mxCell><mxCell id="Kro14iyP_rIzkisNI-u3-222" value="" style="edgeStyle=entityRelationEdgeStyle;fontSize=12;html=1;endArrow=ERoneToMany;rounded=0;entryX=0;entryY=0.5;entryDx=0;entryDy=0;exitX=0.997;exitY=0.041;exitDx=0;exitDy=0;exitPerimeter=0;" parent="1" source="Kro14iyP_rIzkisNI-u3-172" target="Kro14iyP_rIzkisNI-u3-218" edge="1"><mxGeometry width="100" height="100" relative="1" as="geometry"><mxPoint x="469" y="795" as="sourcePoint"/><mxPoint x="421" y="610" as="targetPoint"/></mxGeometry></mxCell><mxCell id="Kro14iyP_rIzkisNI-u3-223" value="Address" style="swimlane;fontStyle=0;childLayout=stackLayout;horizontal=1;startSize=26;horizontalStack=0;resizeParent=1;resizeParentMax=0;resizeLast=0;collapsible=1;marginBottom=0;align=center;fontSize=14;" parent="1" vertex="1"><mxGeometry x="-306" y="450" width="160" height="236" as="geometry"/></mxCell><mxCell id="Kro14iyP_rIzkisNI-u3-224" value="id" style="text;strokeColor=none;fillColor=none;spacingLeft=4;spacingRight=4;overflow=hidden;rotatable=0;points=[[0,0.5],[1,0.5]];portConstraint=eastwest;fontSize=12;whiteSpace=wrap;html=1;" parent="Kro14iyP_rIzkisNI-u3-223" vertex="1"><mxGeometry y="26" width="160" height="30" as="geometry"/></mxCell><mxCell id="Kro14iyP_rIzkisNI-u3-225" value="userId" style="text;strokeColor=none;fillColor=none;spacingLeft=4;spacingRight=4;overflow=hidden;rotatable=0;points=[[0,0.5],[1,0.5]];portConstraint=eastwest;fontSize=12;whiteSpace=wrap;html=1;" parent="Kro14iyP_rIzkisNI-u3-223" vertex="1"><mxGeometry y="56" width="160" height="30" as="geometry"/></mxCell><mxCell id="Kro14iyP_rIzkisNI-u3-226" value="country" style="text;strokeColor=none;fillColor=none;spacingLeft=4;spacingRight=4;overflow=hidden;rotatable=0;points=[[0,0.5],[1,0.5]];portConstraint=eastwest;fontSize=12;whiteSpace=wrap;html=1;" parent="Kro14iyP_rIzkisNI-u3-223" vertex="1"><mxGeometry y="86" width="160" height="30" as="geometry"/></mxCell><mxCell id="Kro14iyP_rIzkisNI-u3-227" value="city" style="text;strokeColor=none;fillColor=none;spacingLeft=4;spacingRight=4;overflow=hidden;rotatable=0;points=[[0,0.5],[1,0.5]];portConstraint=eastwest;fontSize=12;whiteSpace=wrap;html=1;" parent="Kro14iyP_rIzkisNI-u3-223" vertex="1"><mxGeometry y="116" width="160" height="30" as="geometry"/></mxCell><mxCell id="Kro14iyP_rIzkisNI-u3-228" value="street" style="text;strokeColor=none;fillColor=none;spacingLeft=4;spacingRight=4;overflow=hidden;rotatable=0;points=[[0,0.5],[1,0.5]];portConstraint=eastwest;fontSize=12;whiteSpace=wrap;html=1;" parent="Kro14iyP_rIzkisNI-u3-223" vertex="1"><mxGeometry y="146" width="160" height="30" as="geometry"/></mxCell><mxCell id="Kro14iyP_rIzkisNI-u3-229" value="house" style="text;strokeColor=none;fillColor=none;spacingLeft=4;spacingRight=4;overflow=hidden;rotatable=0;points=[[0,0.5],[1,0.5]];portConstraint=eastwest;fontSize=12;whiteSpace=wrap;html=1;" parent="Kro14iyP_rIzkisNI-u3-223" vertex="1"><mxGeometry y="176" width="160" height="30" as="geometry"/></mxCell><mxCell id="Kro14iyP_rIzkisNI-u3-230" value="flat" style="text;strokeColor=none;fillColor=none;spacingLeft=4;spacingRight=4;overflow=hidden;rotatable=0;points=[[0,0.5],[1,0.5]];portConstraint=eastwest;fontSize=12;whiteSpace=wrap;html=1;" parent="Kro14iyP_rIzkisNI-u3-223" vertex="1"><mxGeometry y="206" width="160" height="30" as="geometry"/></mxCell><mxCell id="Kro14iyP_rIzkisNI-u3-232" value="" style="edgeStyle=entityRelationEdgeStyle;fontSize=12;html=1;endArrow=ERoneToMany;rounded=0;exitX=-0.001;exitY=0.068;exitDx=0;exitDy=0;entryX=1;entryY=0.5;entryDx=0;entryDy=0;exitPerimeter=0;" parent="1" source="Kro14iyP_rIzkisNI-u3-111" target="Kro14iyP_rIzkisNI-u3-225" edge="1"><mxGeometry width="100" height="100" relative="1" as="geometry"><mxPoint x="51" y="510" as="sourcePoint"/><mxPoint x="151" y="410" as="targetPoint"/></mxGeometry></mxCell><mxCell id="Kro14iyP_rIzkisNI-u3-235" value="" style="edgeStyle=entityRelationEdgeStyle;fontSize=12;html=1;endArrow=ERoneToMany;rounded=0;exitX=0.25;exitY=0;exitDx=0;exitDy=0;entryX=1;entryY=0.5;entryDx=0;entryDy=0;" parent="1" source="Kro14iyP_rIzkisNI-u3-128" target="Kro14iyP_rIzkisNI-u3-155" edge="1"><mxGeometry width="100" height="100" relative="1" as="geometry"><mxPoint x="781" y="382" as="sourcePoint"/><mxPoint x="691" y="621" as="targetPoint"/></mxGeometry></mxCell><mxCell id="Kro14iyP_rIzkisNI-u3-236" value="" style="edgeStyle=entityRelationEdgeStyle;fontSize=12;html=1;endArrow=ERoneToMany;rounded=0;exitX=0.002;exitY=0.092;exitDx=0;exitDy=0;exitPerimeter=0;entryX=1;entryY=0.5;entryDx=0;entryDy=0;" parent="1" source="Kro14iyP_rIzkisNI-u3-212" target="Kro14iyP_rIzkisNI-u3-219" edge="1"><mxGeometry width="100" height="100" relative="1" as="geometry"><mxPoint x="68.99999999999977" y="696.038" as="sourcePoint"/><mxPoint x="151.49" y="1110" as="targetPoint"/></mxGeometry></mxCell><mxCell id="Kro14iyP_rIzkisNI-u3-238" value="ProductImages" style="swimlane;fontStyle=0;childLayout=stackLayout;horizontal=1;startSize=26;horizontalStack=0;resizeParent=1;resizeParentMax=0;resizeLast=0;collapsible=1;marginBottom=0;align=center;fontSize=14;" parent="1" vertex="1"><mxGeometry x="1204" y="335" width="160" height="176" as="geometry"/></mxCell><mxCell id="Kro14iyP_rIzkisNI-u3-239" value="id" style="text;strokeColor=none;fillColor=none;spacingLeft=4;spacingRight=4;overflow=hidden;rotatable=0;points=[[0,0.5],[1,0.5]];portConstraint=eastwest;fontSize=12;whiteSpace=wrap;html=1;" parent="Kro14iyP_rIzkisNI-u3-238" vertex="1"><mxGeometry y="26" width="160" height="30" as="geometry"/></mxCell><mxCell id="Kro14iyP_rIzkisNI-u3-240" value="url" style="text;strokeColor=none;fillColor=none;spacingLeft=4;spacingRight=4;overflow=hidden;rotatable=0;points=[[0,0.5],[1,0.5]];portConstraint=eastwest;fontSize=12;whiteSpace=wrap;html=1;" parent="Kro14iyP_rIzkisNI-u3-238" vertex="1"><mxGeometry y="56" width="160" height="30" as="geometry"/></mxCell><mxCell id="Kro14iyP_rIzkisNI-u3-251" value="order" style="text;strokeColor=none;fillColor=none;spacingLeft=4;spacingRight=4;overflow=hidden;rotatable=0;points=[[0,0.5],[1,0.5]];portConstraint=eastwest;fontSize=12;whiteSpace=wrap;html=1;" parent="Kro14iyP_rIzkisNI-u3-238" vertex="1"><mxGeometry y="86" width="160" height="30" as="geometry"/></mxCell><mxCell id="19" value="description" style="text;strokeColor=none;fillColor=none;spacingLeft=4;spacingRight=4;overflow=hidden;rotatable=0;points=[[0,0.5],[1,0.5]];portConstraint=eastwest;fontSize=12;whiteSpace=wrap;html=1;" parent="Kro14iyP_rIzkisNI-u3-238" vertex="1"><mxGeometry y="116" width="160" height="30" as="geometry"/></mxCell><mxCell id="Kro14iyP_rIzkisNI-u3-241" value="product_id" style="text;strokeColor=none;fillColor=none;spacingLeft=4;spacingRight=4;overflow=hidden;rotatable=0;points=[[0,0.5],[1,0.5]];portConstraint=eastwest;fontSize=12;whiteSpace=wrap;html=1;" parent="Kro14iyP_rIzkisNI-u3-238" vertex="1"><mxGeometry y="146" width="160" height="30" as="geometry"/></mxCell><mxCell id="Kro14iyP_rIzkisNI-u3-244" value="" style="edgeStyle=entityRelationEdgeStyle;fontSize=12;html=1;endArrow=ERoneToMany;rounded=0;entryX=0;entryY=0.5;entryDx=0;entryDy=0;exitX=0.998;exitY=0.072;exitDx=0;exitDy=0;exitPerimeter=0;" parent="1" source="Kro14iyP_rIzkisNI-u3-128" target="Kro14iyP_rIzkisNI-u3-241" edge="1"><mxGeometry width="100" height="100" relative="1" as="geometry"><mxPoint x="971" y="371" as="sourcePoint"/><mxPoint x="1081" y="481" as="targetPoint"/></mxGeometry></mxCell><mxCell id="2" value="Wishlists" style="swimlane;fontStyle=0;childLayout=stackLayout;horizontal=1;startSize=26;horizontalStack=0;resizeParent=1;resizeParentMax=0;resizeLast=0;collapsible=1;marginBottom=0;align=center;fontSize=14;" parent="1" vertex="1"><mxGeometry x="220" y="155" width="160" height="86" as="geometry"/></mxCell><mxCell id="3" value="id" style="text;strokeColor=none;fillColor=none;spacingLeft=4;spacingRight=4;overflow=hidden;rotatable=0;points=[[0,0.5],[1,0.5]];portConstraint=eastwest;fontSize=12;whiteSpace=wrap;html=1;" parent="2" vertex="1"><mxGeometry y="26" width="160" height="30" as="geometry"/></mxCell><mxCell id="4" value="user_id" style="text;strokeColor=none;fillColor=none;spacingLeft=4;spacingRight=4;overflow=hidden;rotatable=0;points=[[0,0.5],[1,0.5]];portConstraint=eastwest;fontSize=12;whiteSpace=wrap;html=1;" parent="2" vertex="1"><mxGeometry y="56" width="160" height="30" as="geometry"/></mxCell><mxCell id="10" value="Wishlist_product" style="swimlane;fontStyle=0;childLayout=stackLayout;horizontal=1;startSize=26;horizontalStack=0;resizeParent=1;resizeParentMax=0;resizeLast=0;collapsible=1;marginBottom=0;align=center;fontSize=14;" parent="1" vertex="1"><mxGeometry x="661" y="39" width="160" height="116" as="geometry"/></mxCell><mxCell id="11" value="id" style="text;strokeColor=none;fillColor=none;spacingLeft=4;spacingRight=4;overflow=hidden;rotatable=0;points=[[0,0.5],[1,0.5]];portConstraint=eastwest;fontSize=12;whiteSpace=wrap;html=1;" parent="10" vertex="1"><mxGeometry y="26" width="160" height="30" as="geometry"/></mxCell><mxCell id="12" value="product_id" style="text;strokeColor=none;fillColor=none;spacingLeft=4;spacingRight=4;overflow=hidden;rotatable=0;points=[[0,0.5],[1,0.5]];portConstraint=eastwest;fontSize=12;whiteSpace=wrap;html=1;" parent="10" vertex="1"><mxGeometry y="56" width="160" height="30" as="geometry"/></mxCell><mxCell id="13" value="wishlist_id" style="text;strokeColor=none;fillColor=none;spacingLeft=4;spacingRight=4;overflow=hidden;rotatable=0;points=[[0,0.5],[1,0.5]];portConstraint=eastwest;fontSize=12;whiteSpace=wrap;html=1;" parent="10" vertex="1"><mxGeometry y="86" width="160" height="30" as="geometry"/></mxCell><mxCell id="15" value="" style="edgeStyle=entityRelationEdgeStyle;fontSize=12;html=1;endArrow=ERoneToMany;rounded=0;exitX=0.5;exitY=0;exitDx=0;exitDy=0;entryX=1;entryY=0.5;entryDx=0;entryDy=0;" parent="1" source="Kro14iyP_rIzkisNI-u3-128" target="12" edge="1"><mxGeometry width="100" height="100" relative="1" as="geometry"><mxPoint x="811.3200000000006" y="368.26" as="sourcePoint"/><mxPoint x="701.0000000000005" y="321.0000000000002" as="targetPoint"/></mxGeometry></mxCell><mxCell id="16" value="" style="edgeStyle=entityRelationEdgeStyle;fontSize=12;html=1;endArrow=ERmandOne;startArrow=ERmandOne;rounded=0;entryX=0;entryY=0.5;entryDx=0;entryDy=0;exitX=0.999;exitY=0.015;exitDx=0;exitDy=0;exitPerimeter=0;" parent="1" source="Kro14iyP_rIzkisNI-u3-111" target="4" edge="1"><mxGeometry width="100" height="100" relative="1" as="geometry"><mxPoint x="-27" y="453" as="sourcePoint"/><mxPoint x="261" y="391.0000000000002" as="targetPoint"/></mxGeometry></mxCell><mxCell id="18" value="" style="edgeStyle=entityRelationEdgeStyle;fontSize=12;html=1;endArrow=ERoneToMany;rounded=0;entryX=0;entryY=0.5;entryDx=0;entryDy=0;exitX=0.998;exitY=0.176;exitDx=0;exitDy=0;exitPerimeter=0;" parent="1" source="2" target="13" edge="1"><mxGeometry width="100" height="100" relative="1" as="geometry"><mxPoint x="270" y="43" as="sourcePoint"/><mxPoint x="625" y="68.99999999999989" as="targetPoint"/></mxGeometry></mxCell><mxCell id="28" value="Shipments" style="swimlane;fontStyle=0;childLayout=stackLayout;horizontal=1;startSize=26;horizontalStack=0;resizeParent=1;resizeParentMax=0;resizeLast=0;collapsible=1;marginBottom=0;align=center;fontSize=14;" parent="1" vertex="1"><mxGeometry x="-47" y="791" width="160" height="146" as="geometry"/></mxCell><mxCell id="29" value="id" style="text;strokeColor=none;fillColor=none;spacingLeft=4;spacingRight=4;overflow=hidden;rotatable=0;points=[[0,0.5],[1,0.5]];portConstraint=eastwest;fontSize=12;whiteSpace=wrap;html=1;" parent="28" vertex="1"><mxGeometry y="26" width="160" height="30" as="geometry"/></mxCell><mxCell id="30" value="&lt;meta charset=&quot;utf-8&quot;&gt;&lt;span style=&quot;color: rgb(0, 0, 0); font-family: Helvetica; font-size: 12px; font-style: normal; font-variant-ligatures: normal; font-variant-caps: normal; font-weight: 400; letter-spacing: normal; orphans: 2; text-align: left; text-indent: 0px; text-transform: none; widows: 2; word-spacing: 0px; -webkit-text-stroke-width: 0px; background-color: rgb(255, 255, 255); text-decoration-thickness: initial; text-decoration-style: initial; text-decoration-color: initial; float: none; display: inline !important;&quot;&gt;shipment_type_id&lt;/span&gt;" style="text;strokeColor=none;fillColor=none;spacingLeft=4;spacingRight=4;overflow=hidden;rotatable=0;points=[[0,0.5],[1,0.5]];portConstraint=eastwest;fontSize=12;whiteSpace=wrap;html=1;" parent="28" vertex="1"><mxGeometry y="56" width="160" height="30" as="geometry"/></mxCell><mxCell id="40" value="order_id" style="text;strokeColor=none;fillColor=none;spacingLeft=4;spacingRight=4;overflow=hidden;rotatable=0;points=[[0,0.5],[1,0.5]];portConstraint=eastwest;fontSize=12;whiteSpace=wrap;html=1;" parent="28" vertex="1"><mxGeometry y="86" width="160" height="30" as="geometry"/></mxCell><mxCell id="41" value="address" style="text;strokeColor=none;fillColor=none;spacingLeft=4;spacingRight=4;overflow=hidden;rotatable=0;points=[[0,0.5],[1,0.5]];portConstraint=eastwest;fontSize=12;whiteSpace=wrap;html=1;" parent="28" vertex="1"><mxGeometry y="116" width="160" height="30" as="geometry"/></mxCell><mxCell id="42" value="" style="edgeStyle=entityRelationEdgeStyle;fontSize=12;html=1;endArrow=ERmandOne;startArrow=ERmandOne;rounded=0;entryX=0;entryY=0.5;entryDx=0;entryDy=0;exitX=0.992;exitY=0.072;exitDx=0;exitDy=0;exitPerimeter=0;" parent="1" source="28" target="Kro14iyP_rIzkisNI-u3-175" edge="1"><mxGeometry width="100" height="100" relative="1" as="geometry"><mxPoint x="-29.000000000000227" y="477" as="sourcePoint"/><mxPoint x="260.9999999999998" y="241" as="targetPoint"/></mxGeometry></mxCell><mxCell id="53" value="basket_coupon" style="swimlane;fontStyle=0;childLayout=stackLayout;horizontal=1;startSize=26;horizontalStack=0;resizeParent=1;resizeParentMax=0;resizeLast=0;collapsible=1;marginBottom=0;align=center;fontSize=14;" parent="1" vertex="1"><mxGeometry x="444" y="344" width="160" height="120" as="geometry"/></mxCell><mxCell id="54" value="id" style="text;strokeColor=none;fillColor=none;spacingLeft=4;spacingRight=4;overflow=hidden;rotatable=0;points=[[0,0.5],[1,0.5]];portConstraint=eastwest;fontSize=12;whiteSpace=wrap;html=1;" parent="53" vertex="1"><mxGeometry y="26" width="160" height="34" as="geometry"/></mxCell><mxCell id="55" value="coupon_id" style="text;strokeColor=none;fillColor=none;spacingLeft=4;spacingRight=4;overflow=hidden;rotatable=0;points=[[0,0.5],[1,0.5]];portConstraint=eastwest;fontSize=12;whiteSpace=wrap;html=1;" parent="53" vertex="1"><mxGeometry y="60" width="160" height="30" as="geometry"/></mxCell><mxCell id="56" value="basket_id" style="text;strokeColor=none;fillColor=none;spacingLeft=4;spacingRight=4;overflow=hidden;rotatable=0;points=[[0,0.5],[1,0.5]];portConstraint=eastwest;fontSize=12;whiteSpace=wrap;html=1;" parent="53" vertex="1"><mxGeometry y="90" width="160" height="30" as="geometry"/></mxCell><mxCell id="57" value="" style="edgeStyle=entityRelationEdgeStyle;fontSize=12;html=1;endArrow=ERoneToMany;rounded=0;exitX=-0.002;exitY=0.028;exitDx=0;exitDy=0;exitPerimeter=0;entryX=1;entryY=0.5;entryDx=0;entryDy=0;" parent="1" source="Kro14iyP_rIzkisNI-u3-212" target="55" edge="1"><mxGeometry width="100" height="100" relative="1" as="geometry"><mxPoint x="480.34000000000015" y="557.806" as="sourcePoint"/><mxPoint x="306" y="675" as="targetPoint"/></mxGeometry></mxCell><mxCell id="58" value="" style="edgeStyle=entityRelationEdgeStyle;fontSize=12;html=1;endArrow=ERoneToMany;rounded=0;entryX=0;entryY=0.5;entryDx=0;entryDy=0;exitX=1;exitY=0.25;exitDx=0;exitDy=0;" parent="1" source="Kro14iyP_rIzkisNI-u3-123" target="56" edge="1"><mxGeometry width="100" height="100" relative="1" as="geometry"><mxPoint x="346.9999999999998" y="341.932" as="sourcePoint"/><mxPoint x="461" y="369" as="targetPoint"/></mxGeometry></mxCell><mxCell id="59" value="Token" style="swimlane;fontStyle=0;childLayout=stackLayout;horizontal=1;startSize=26;horizontalStack=0;resizeParent=1;resizeParentMax=0;resizeLast=0;collapsible=1;marginBottom=0;align=center;fontSize=14;" vertex="1" parent="1"><mxGeometry x="-291" y="255" width="160" height="116" as="geometry"/></mxCell><mxCell id="60" value="id" style="text;strokeColor=none;fillColor=none;spacingLeft=4;spacingRight=4;overflow=hidden;rotatable=0;points=[[0,0.5],[1,0.5]];portConstraint=eastwest;fontSize=12;whiteSpace=wrap;html=1;" vertex="1" parent="59"><mxGeometry y="26" width="160" height="30" as="geometry"/></mxCell><mxCell id="61" value="refresh_token" style="text;strokeColor=none;fillColor=none;spacingLeft=4;spacingRight=4;overflow=hidden;rotatable=0;points=[[0,0.5],[1,0.5]];portConstraint=eastwest;fontSize=12;whiteSpace=wrap;html=1;" vertex="1" parent="59"><mxGeometry y="56" width="160" height="30" as="geometry"/></mxCell><mxCell id="62" value="userId" style="text;strokeColor=none;fillColor=none;spacingLeft=4;spacingRight=4;overflow=hidden;rotatable=0;points=[[0,0.5],[1,0.5]];portConstraint=eastwest;fontSize=12;whiteSpace=wrap;html=1;" vertex="1" parent="59"><mxGeometry y="86" width="160" height="30" as="geometry"/></mxCell><mxCell id="69" value="" style="edgeStyle=entityRelationEdgeStyle;fontSize=12;html=1;endArrow=ERmandOne;startArrow=ERmandOne;rounded=0;entryX=1;entryY=0.5;entryDx=0;entryDy=0;exitX=0;exitY=0.024;exitDx=0;exitDy=0;exitPerimeter=0;" edge="1" parent="1" source="Kro14iyP_rIzkisNI-u3-111" target="62"><mxGeometry width="100" height="100" relative="1" as="geometry"><mxPoint x="-71" y="440" as="sourcePoint"/><mxPoint x="230" y="236" as="targetPoint"/></mxGeometry></mxCell></root></mxGraphModel></diagram></mxfile>